<?xml version="1.0" encoding="utf-8"?>
<!-- Generator: Adobe Illustrator 24.2.3, SVG Export Plug-In . SVG Version: 6.00 Build 0)  -->
<svg version="1.1" id="Layer_1" xmlns="http://www.w3.org/2000/svg" xmlns:xlink="http://www.w3.org/1999/xlink" x="0px" y="0px"
	 viewBox="0 0 566.93 164.79" style="enable-background:new 0 0 566.93 164.79;" xml:space="preserve">
<style type="text/css">
	.st0{fill:#131212;}
</style>
<g>
	<g>
		<path class="st0" d="M526.78,90.14h-43.67l-6.15,16.85H454.1l37.8-97.74h26.08l37.66,97.74h-22.71L526.78,90.14z M488.68,72.12
			h32.38l-16.12-44.84L488.68,72.12z"/>
		<g>
			<path class="st0" d="M427.88,28.71v78.28h20.81V20.34C441.83,23.32,434.89,26.09,427.88,28.71z"/>
			<path class="st0" d="M448.68,16.29V9.26h-20.81v15.25C434.89,21.94,441.83,19.21,448.68,16.29z"/>
		</g>
		<g>
			<path class="st0" d="M412.05,30.01V9.26h-29.31l-12.77,32.79C384.12,38.53,398.19,34.56,412.05,30.01z"/>
			<path class="st0" d="M326.91,51.49V36.66l5.4,13.79c5.85-1.17,11.71-2.39,17.56-3.68L335.27,9.26h-29.16v46.01
				C313.06,54.09,320,52.83,326.91,51.49z"/>
			<path class="st0" d="M391.09,40.85v66.15h20.95V34.33C405.11,36.65,398.12,38.81,391.09,40.85z"/>
			<path class="st0" d="M306.11,60.05v46.95h20.81v-50.8C320,57.55,313.06,58.85,306.11,60.05z"/>
			<path class="st0" d="M368.01,47.08L359,70.21l-7.48-19.22c-5.84,1.32-11.68,2.58-17.51,3.77l20.45,52.23h9.09l25.7-65.61
				C382.2,43.4,375.12,45.3,368.01,47.08z"/>
		</g>
		<g>
			<path class="st0" d="M241.08,63.63c15.38-1.34,30.72-3.15,45.99-5.37c-7.46-6.29-18.58-8.88-28.15-11.05
				c-11.28-2.64-19.49-4.69-19.49-11.28c0-5.86,4.98-9.96,14.36-9.96c9.52,0,20.07,3.37,27.99,10.7l11.58-15.24
				c-9.67-8.94-22.57-13.63-38.1-13.63c-23.01,0-37.07,13.19-37.07,29.45C218.19,53.11,229.02,59.77,241.08,63.63z"/>
			<path class="st0" d="M255.08,67.23c11.08,2.6,19.37,5.12,19.37,12.36c0,5.57-5.57,10.99-17,10.99
				c-13.48,0-24.18-6.01-31.06-13.19l-11.43,15.83c9.23,9.23,22.71,15.53,41.47,15.53c26.38,0,39.12-13.48,39.12-31.36
				c0-6.24-1.7-11.08-4.51-14.9C279.1,64.33,267.11,65.92,255.08,67.23z"/>
		</g>
		<g>
			<path class="st0" d="M130.35,64.76c-0.35-2.11-0.53-4.3-0.53-6.56c0-18.32,11.58-32.09,29.6-32.09
				c18.02,0,29.75,13.77,29.75,32.09c0,2.83-0.28,5.55-0.83,8.14c7.25-0.11,14.49-0.33,21.74-0.66c0.32-2.43,0.49-4.92,0.49-7.48
				c0-29.45-21.54-50.55-51.14-50.55c-29.45,0-50.99,21.1-50.99,50.55c0,1.56,0.07,3.09,0.19,4.61
				C115.87,63.59,123.12,64.24,130.35,64.76z"/>
			<path class="st0" d="M186.77,71.62c-4.3,11.17-14.12,18.67-27.35,18.67c-13.73,0-23.71-8.08-27.69-19.96
				c-7.44-0.48-14.9-1.08-22.38-1.83c4.41,23.94,24.18,40.25,50.06,40.25c25.15,0,44.47-15.23,49.71-37.87
				C201.69,71.24,194.23,71.5,186.77,71.62z"/>
		</g>
		<g>
			<path class="st0" d="M33.95,48.5c3.65-13.34,14.77-22.39,28.62-22.39c10.84,0,19.63,6.3,23.74,14.21l17.88-8.79
				C97.29,19.37,84.84,7.65,62.57,7.65c-23.03,0-42.24,13.33-48.84,34.23C20.39,44.3,27.13,46.51,33.95,48.5z"/>
			<path class="st0" d="M62.57,90.29c-17,0-29.89-13.63-29.89-32.09c0-1.27,0.07-2.52,0.19-3.74c-6.95-1.99-13.83-4.19-20.62-6.64
				c-0.63,3.31-0.96,6.78-0.96,10.38c0,30.04,22.71,50.55,51.29,50.55c22.27,0,34.58-11.87,41.61-24.03L86.3,76.08
				C82.2,84.13,73.41,90.29,62.57,90.29z"/>
		</g>
	</g>
	<g>
		<path class="st0" d="M53.38,128.95h10.81c4.42,0,7.26,2.56,7.26,6.7c0,3.31-2.25,5.56-4.61,6.03c2.8,0.43,5.13,3.35,5.13,6.47
			c0,4.38-2.84,7.1-7.53,7.1H53.38V128.95z M63.91,140.75c3.39,0,5.17-2.13,5.17-4.85c0-2.68-1.77-4.89-5.17-4.89h-8.28v9.74H63.91z
			 M64.07,153.21c3.47,0,5.52-2.01,5.52-5.21c0-2.68-1.85-5.21-5.52-5.21h-8.44v10.41H64.07z"/>
		<path class="st0" d="M87.35,144.02l-10.45-15.07h2.72l8.87,12.94l8.87-12.94h2.72l-10.45,15.07v11.24h-2.29V144.02z"/>
		<path class="st0" d="M120.48,128.95h2.25v24.26h12.74v2.05h-14.99V128.95z"/>
		<path class="st0" d="M142.38,128.95h2.29v16.17c0,5.32,2.8,8.56,7.97,8.56c5.21,0,7.97-3.23,7.97-8.56v-16.17h2.29v16.21
			c0,6.51-3.47,10.57-10.26,10.57c-6.74,0-10.25-4.1-10.25-10.57V128.95z"/>
		<path class="st0" d="M171.61,142.13c0-8.09,5.88-13.61,13.25-13.61c4.26,0,7.42,1.85,9.66,4.65l-1.89,1.22
			c-1.66-2.29-4.54-3.83-7.77-3.83c-6.11,0-10.89,4.69-10.89,11.56c0,6.78,4.77,11.56,10.89,11.56c3.23,0,6.11-1.54,7.77-3.83
			l1.89,1.18c-2.33,2.88-5.4,4.69-9.66,4.69C177.49,155.73,171.61,150.21,171.61,142.13z"/>
		<path class="st0" d="M202.26,128.95h2.25v26.31h-2.25V128.95z"/>
		<path class="st0" d="M230.7,148.79h-14l-2.64,6.47h-2.52l10.77-26.31h2.8l10.77,26.31h-2.52L230.7,148.79z M217.41,146.74h12.58
			l-6.31-15.58L217.41,146.74z"/>
		<path class="st0" d="M245.14,132.54v22.72h-2.25v-26.31h2.29l16.49,22.4v-22.4h2.25v26.31h-2.21L245.14,132.54z"/>
		<path class="st0" d="M290.11,148.79h-14l-2.64,6.47h-2.52l10.77-26.31h2.8l10.77,26.31h-2.52L290.11,148.79z M276.82,146.74h12.58
			l-6.31-15.58L276.82,146.74z"/>
		<path class="st0" d="M315.68,149.86c1.7,1.97,4.46,3.83,8.2,3.83c5.4,0,6.94-3,6.94-5.25c0-3.71-3.51-4.73-7.22-5.72
			c-4.14-1.14-8.56-2.33-8.56-7.18c0-4.3,3.87-7.02,8.64-7.02c3.94,0,6.86,1.38,8.91,3.71l-1.5,1.66c-1.89-2.29-4.57-3.31-7.53-3.31
			c-3.51,0-6.15,2.01-6.15,4.85c0,3.12,3.27,4.02,6.86,4.97c4.26,1.22,8.91,2.56,8.91,7.89c0,3.39-2.25,7.46-9.35,7.46
			c-4.34,0-7.61-1.74-9.62-4.18L315.68,149.86z"/>
		<path class="st0" d="M357.84,148.79h-14l-2.64,6.47h-2.52l10.77-26.31h2.8l10.77,26.31h-2.52L357.84,148.79z M344.55,146.74h12.58
			l-6.31-15.58L344.55,146.74z"/>
		<path class="st0" d="M370.04,128.95h2.25v24.26h12.74v2.05h-14.99V128.95z"/>
		<path class="st0" d="M403.41,128.52c7.69,0,12.78,5.92,12.78,13.61c0,7.69-5.09,13.61-12.78,13.61c-7.73,0-12.78-5.92-12.78-13.61
			C390.63,134.43,395.68,128.52,403.41,128.52z M403.41,130.57c-6.39,0-10.41,4.85-10.41,11.56c0,6.63,4.02,11.56,10.41,11.56
			c6.31,0,10.41-4.93,10.41-11.56C413.82,135.42,409.72,130.57,403.41,130.57z"/>
		<path class="st0" d="M447.23,131.91l-9.58,23.35h-0.87l-9.62-23.35v23.35h-2.25v-26.31h3.35l8.95,21.81l8.91-21.81h3.39v26.31
			h-2.29V131.91z"/>
		<path class="st0" d="M471.02,128.52c7.69,0,12.78,5.92,12.78,13.61c0,7.69-5.09,13.61-12.78,13.61c-7.73,0-12.78-5.92-12.78-13.61
			C458.24,134.43,463.29,128.52,471.02,128.52z M471.02,130.57c-6.39,0-10.41,4.85-10.41,11.56c0,6.63,4.02,11.56,10.41,11.56
			c6.31,0,10.41-4.93,10.41-11.56C481.44,135.42,477.33,130.57,471.02,130.57z M470.08,126.74l6.07-5.68h2.45l-6.78,5.68H470.08z"/>
		<path class="st0" d="M494.77,132.54v22.72h-2.25v-26.31h2.29l16.49,22.4v-22.4h2.25v26.31h-2.21L494.77,132.54z"/>
	</g>
</g>
</svg>
