<?xml version="1.0" encoding="UTF-8"?>
<svg id="Layer_2" data-name="Layer 2" xmlns="http://www.w3.org/2000/svg" viewBox="0 0 712.3 203.26">
  <defs>
    <style>
      .cls-1 {
        fill: #fff;
      }
    </style>
  </defs>
  <g id="Layer_1-2" data-name="Layer 1">
    <g>
      <path class="cls-1" d="m131.98,202.97c-3.02,0-5.87-.51-8.56-1.54-2.69-1.02-4.77-2.35-6.23-3.97l1.33-2.2c1.39,1.43,3.3,2.64,5.71,3.62,2.42.99,4.98,1.48,7.69,1.48s4.92-.36,6.64-1.07c1.72-.71,3-1.67,3.83-2.87.83-1.2,1.25-2.53,1.25-4,0-1.74-.46-3.13-1.39-4.18-.93-1.04-2.15-1.87-3.65-2.49-1.51-.62-3.15-1.14-4.93-1.57-1.78-.43-3.58-.88-5.39-1.36-1.82-.48-3.48-1.11-4.99-1.88-1.51-.77-2.72-1.83-3.63-3.16-.91-1.33-1.36-3.06-1.36-5.19,0-1.93.5-3.71,1.51-5.34,1.01-1.62,2.57-2.94,4.7-3.94,2.13-1.01,4.85-1.51,8.18-1.51,2.24,0,4.46.33,6.64.99,2.18.66,4.05,1.55,5.6,2.67l-1.1,2.38c-1.7-1.16-3.53-2.02-5.48-2.58-1.95-.56-3.84-.84-5.66-.84-2.59,0-4.74.37-6.44,1.1-1.7.74-2.96,1.71-3.77,2.93-.81,1.22-1.22,2.58-1.22,4.09,0,1.74.45,3.13,1.36,4.18.91,1.04,2.12,1.88,3.63,2.49,1.51.62,3.17,1.14,4.99,1.57,1.82.43,3.61.88,5.39,1.36,1.78.48,3.42,1.11,4.93,1.89,1.51.77,2.73,1.82,3.65,3.13.93,1.31,1.39,3.02,1.39,5.1,0,1.9-.52,3.66-1.57,5.31-1.04,1.64-2.64,2.96-4.78,3.94s-4.9,1.48-8.27,1.48Z"/>
      <path class="cls-1" d="m157.97,202.68l18.68-40.6h2.96s18.68,40.6,18.68,40.6h-3.19s-17.63-38.74-17.63-38.74h1.28s-17.57,38.74-17.57,38.74h-3.19Zm6.84-11.43l.99-2.49h24.3s.99,2.49.99,2.49h-26.27Z"/>
      <path class="cls-1" d="m213.76,202.68v-40.6s2.96,0,2.96,0v37.93s23.37,0,23.37,0v2.67s-26.33,0-26.33,0Z"/>
      <path class="cls-1" d="m272.23,202.97c-3.02,0-5.81-.51-8.38-1.54-2.57-1.02-4.81-2.47-6.73-4.35-1.91-1.87-3.39-4.06-4.44-6.55-1.04-2.49-1.57-5.21-1.57-8.15s.52-5.66,1.57-8.15c1.04-2.49,2.52-4.68,4.44-6.55,1.91-1.88,4.16-3.33,6.73-4.35,2.57-1.02,5.37-1.54,8.38-1.54s5.81.51,8.38,1.54c2.57,1.02,4.8,2.46,6.7,4.32,1.89,1.86,3.37,4.03,4.44,6.53,1.06,2.49,1.6,5.23,1.6,8.21s-.53,5.71-1.6,8.21c-1.06,2.49-2.54,4.67-4.44,6.52-1.9,1.86-4.13,3.3-6.7,4.32-2.57,1.02-5.37,1.54-8.38,1.54Zm0-2.73c2.59,0,4.99-.44,7.19-1.33,2.2-.89,4.12-2.15,5.74-3.77s2.89-3.52,3.8-5.68c.91-2.17,1.36-4.52,1.36-7.08s-.46-4.96-1.36-7.1c-.91-2.15-2.18-4.03-3.8-5.66s-3.54-2.88-5.74-3.77c-2.2-.89-4.6-1.33-7.19-1.33s-4.99.44-7.19,1.33c-2.2.89-4.13,2.15-5.77,3.77-1.64,1.62-2.92,3.51-3.83,5.66-.91,2.15-1.36,4.51-1.36,7.1s.45,4.91,1.36,7.08c.91,2.17,2.18,4.06,3.83,5.68,1.64,1.62,3.57,2.88,5.77,3.77,2.2.89,4.6,1.33,7.19,1.33Zm-3.31-41.47l8.06-6.84h4.18s-9.11,6.84-9.11,6.84h-3.13Z"/>
      <path class="cls-1" d="m311.73,202.68v-40.6s2.49,0,2.49,0l28.94,36.95h-1.33s0-36.95,0-36.95h2.96s0,40.6,0,40.6h-2.44s-29-36.95-29-36.95h1.33s0,36.95,0,36.95h-2.96Z"/>
      <path class="cls-1" d="m399.25,202.97c-2.55,0-4.82-.43-6.82-1.28-1.99-.85-3.56-2.04-4.7-3.57-1.14-1.53-1.71-3.3-1.71-5.31,0-1.66.37-3.2,1.1-4.61.73-1.41,1.94-2.82,3.62-4.23,1.68-1.41,3.93-2.91,6.76-4.5,2.47-1.43,4.43-2.67,5.86-3.71,1.43-1.04,2.44-2.05,3.02-3.02.58-.97.87-2.01.87-3.13,0-1.66-.55-3-1.65-4-1.1-1-2.68-1.51-4.73-1.51-2.17,0-3.86.55-5.08,1.65s-1.83,2.56-1.83,4.38c0,.85.14,1.66.41,2.44.27.77.76,1.63,1.48,2.58.71.95,1.71,2.12,2.99,3.51l21.52,22.68-1.74,1.91-22.16-23.32c-1.35-1.43-2.42-2.69-3.19-3.77-.77-1.08-1.31-2.1-1.6-3.04-.29-.95-.43-1.94-.43-2.99,0-1.66.4-3.11,1.19-4.35.79-1.24,1.91-2.2,3.36-2.9,1.45-.7,3.14-1.04,5.08-1.04,1.82,0,3.39.31,4.73.93,1.33.62,2.37,1.5,3.1,2.64.73,1.14,1.1,2.52,1.1,4.15,0,1.43-.34,2.76-1.01,3.97-.68,1.22-1.81,2.44-3.39,3.65-1.59,1.22-3.75,2.6-6.5,4.15-2.55,1.47-4.56,2.8-6.03,4-1.47,1.2-2.5,2.37-3.1,3.51-.6,1.14-.9,2.39-.9,3.74,0,1.59.44,2.98,1.33,4.18.89,1.2,2.12,2.13,3.68,2.78,1.57.66,3.39.99,5.48.99,2.78,0,5.26-.57,7.42-1.71,2.17-1.14,3.98-2.87,5.45-5.19,1.47-2.32,2.53-5.24,3.19-8.76l2.38.75c-.73,3.83-1.95,7.03-3.65,9.6-1.7,2.57-3.81,4.5-6.32,5.8-2.51,1.3-5.37,1.94-8.58,1.94Z"/>
      <path class="cls-1" d="m469.89,202.97c-3.02,0-5.87-.51-8.56-1.54-2.69-1.02-4.77-2.35-6.23-3.97l1.33-2.2c1.39,1.43,3.3,2.64,5.71,3.62,2.42.99,4.98,1.48,7.68,1.48s4.92-.36,6.64-1.07c1.72-.71,3-1.67,3.83-2.87.83-1.2,1.25-2.53,1.25-4,0-1.74-.46-3.13-1.39-4.18-.93-1.04-2.15-1.87-3.65-2.49-1.51-.62-3.15-1.14-4.93-1.57-1.78-.43-3.58-.88-5.39-1.36-1.82-.48-3.48-1.11-4.99-1.88-1.51-.77-2.72-1.83-3.63-3.16-.91-1.33-1.36-3.06-1.36-5.19,0-1.93.5-3.71,1.51-5.34s2.57-2.94,4.7-3.94c2.13-1.01,4.85-1.51,8.18-1.51,2.24,0,4.46.33,6.64.99,2.18.66,4.05,1.55,5.6,2.67l-1.1,2.38c-1.7-1.16-3.53-2.02-5.48-2.58-1.95-.56-3.84-.84-5.66-.84-2.59,0-4.74.37-6.44,1.1-1.7.74-2.96,1.71-3.77,2.93-.81,1.22-1.22,2.58-1.22,4.09,0,1.74.45,3.13,1.36,4.18.91,1.04,2.12,1.88,3.63,2.49,1.51.62,3.17,1.14,4.99,1.57,1.82.43,3.61.88,5.39,1.36,1.78.48,3.42,1.11,4.93,1.89,1.51.77,2.73,1.82,3.65,3.13.93,1.31,1.39,3.02,1.39,5.1,0,1.9-.52,3.66-1.57,5.31-1.04,1.64-2.64,2.96-4.79,3.94-2.15.99-4.9,1.48-8.26,1.48Z"/>
      <path class="cls-1" d="m502.66,202.68v-40.6s14.56,0,14.56,0c3.4,0,6.32.54,8.76,1.62,2.44,1.08,4.31,2.64,5.63,4.67,1.31,2.03,1.97,4.5,1.97,7.4s-.66,5.26-1.97,7.31c-1.31,2.05-3.19,3.62-5.63,4.7-2.44,1.08-5.36,1.62-8.76,1.62h-12.93s1.33-1.39,1.33-1.39v14.67s-2.96,0-2.96,0Zm2.96-14.5l-1.33-1.45h12.93c4.37,0,7.69-.96,9.95-2.87,2.26-1.91,3.39-4.61,3.39-8.09s-1.13-6.23-3.39-8.15-5.58-2.87-9.95-2.87h-12.93s1.33-1.45,1.33-1.45v24.88Z"/>
      <path class="cls-1" d="m542.85,202.68l18.68-40.6h2.96s18.68,40.6,18.68,40.6h-3.19s-17.63-38.74-17.63-38.74h1.28s-17.57,38.74-17.57,38.74h-3.19Zm6.84-11.43l.99-2.49h24.3s.99,2.49.99,2.49h-26.27Z"/>
    </g>
    <g>
      <path class="cls-1" d="m71.81,59.41c8.14-2.22,14.07-5.49,17.8-9.8,3.72-4.3,5.58-10.12,5.58-17.44,0-5.8-1.25-10.92-3.74-15.34s-6.11-7.95-10.85-10.59c-4.16-2.29-9.13-3.9-14.9-4.83C59.93.47,49.78,0,35.25,0H0s0,65.11,0,65.11c32.73,4.2,65.2,7.52,97.38,9.94-1.12-2.2-2.49-4.2-4.13-6.01-5.15-5.72-12.3-8.92-21.44-9.63Zm-14.42-10.85c-3.22,1.9-9.17,2.86-17.84,2.86h-7.03s0-25.93,0-25.93h7.56c8.73,0,14.6.98,17.62,2.94,3.02,1.97,4.53,5.38,4.53,10.24s-1.61,7.99-4.84,9.89Z"/>
      <path class="cls-1" d="m394.06,62.58c0,3.23.03,6.13.09,8.72-11.61,1.24-23.28,2.35-35,3.32-.05-2.1-.07-4.3-.07-6.59V0s34.98,0,34.98,0v62.58Z"/>
      <path class="cls-1" d="m489.95,0h92.73s0,30.41,0,30.41h-28.83s0,14.9,0,14.9c-11.62,2.59-23.31,5.03-35.07,7.31v-22.21s-28.83,0-28.83,0V0Z"/>
      <path class="cls-1" d="m117.4,0h78.84s0,28.21,0,28.21h-44.65s0,22.33,0,22.33h42.1s0,27.59,0,27.59h-42.1v.17c-11.36-.5-22.76-1.12-34.19-1.86V0Z"/>
      <path class="cls-1" d="m438.71,0h34.89s0,60.69,0,60.69c-11.57,1.87-23.2,3.61-34.9,5.2.01-1.06.01-2.17.01-3.31V0Z"/>
      <path class="cls-1" d="m634.12,0l11.29,21.59c-10.55,3.14-21.16,6.15-31.84,9.03L593.87,0h40.25Z"/>
      <path class="cls-1" d="m711.5,0c-13.67,4.88-27.46,9.54-41.36,13.96L677.36,0h34.14Z"/>
      <path class="cls-1" d="m301.48,0l26.57,76.87c-10.46.67-20.97,1.22-31.52,1.66l-12.46-40.39c-.41-1.28-.96-3.37-1.67-6.24-.7-2.87-1.61-6.56-2.72-11.07-.76,3.16-1.51,6.18-2.24,9.05-.74,2.87-1.48,5.63-2.24,8.26l-12.62,41.48c-10.84.24-21.72.36-32.64.37L257.53,0h43.95Z"/>
      <path class="cls-1" d="m438.54,74.53c11.75-1.6,23.44-3.34,35.06-5.22-.05,13.47-.9,23.45-2.54,29.96-1.7,6.71-4.57,12.44-8.62,17.18-4.39,5.22-10.43,9.13-18.1,11.74-7.68,2.6-17,3.91-27.95,3.91s-20.35-1.31-28-3.91c-7.64-2.61-13.69-6.52-18.15-11.74-3.98-4.74-6.84-10.47-8.56-17.18-1.04-4.04-1.77-9.41-2.18-16.13,11.73-.97,23.41-2.06,35.03-3.29.07.94.15,1.79.24,2.55.47,4.01,1.26,7.37,2.37,10.06,1.35,3.28,3.69,5.79,7.03,7.51,3.34,1.73,7.41,2.6,12.22,2.6s8.86-.87,12.17-2.6c3.31-1.72,5.67-4.23,7.08-7.51,1.11-2.69,1.9-6.05,2.37-10.06.24-1.99.41-4.62.53-7.87Z"/>
      <path class="cls-1" d="m712.3,8.4l-39.6,61.56v58.71s-33.83,0-33.83,0v-58.71s-20.56-31.96-20.56-31.96c10.39-2.86,20.73-5.83,31.01-8.92l2.12,4.05c.11.18.29.5.52.97,1.82,3.46,3.08,6.77,3.78,9.93.59-2.87,1.85-6.06,3.78-9.58.35-.64.59-1.08.7-1.32l4.55-8.79c15.99-5.02,31.83-10.33,47.53-15.94Z"/>
      <path class="cls-1" d="m100.23,83.48c.51,2.62.76,5.44.76,8.45,0,6.86-1.45,12.89-4.35,18.11-2.9,5.21-7.05,9.26-12.44,12.13-4.39,2.34-9.81,4.01-16.26,5.01-6.44.99-16.99,1.49-31.64,1.49H0s0-55.42,0-55.42c10.87,1.4,21.71,2.71,32.52,3.91v25.23s12.31,0,12.31,0c8.32,0,14.2-1.04,17.66-3.12,3.46-2.08,5.19-5.55,5.19-10.41,0-3.41-.63-6.18-1.91-8.29,11.52,1.09,23.01,2.05,34.46,2.91Z"/>
      <path class="cls-1" d="m518.78,61.27c11.76-2.29,23.44-4.73,35.07-7.31v74.71s-35.07,0-35.07,0V61.27Z"/>
      <path class="cls-1" d="m330.93,85.21l15.02,43.46h-34.89s-6.51-23.03-6.51-23.03h-49.83s-6.68,23.03-6.68,23.03h-34.89s13.9-40.29,13.9-40.29h2.64c23.55,0,46.92-.5,70.08-1.5,10.43-.45,20.81-1.01,31.16-1.67Z"/>
      <path class="cls-1" d="m151.59,99.84h44.65s0,28.83,0,28.83h-78.84s0-43.99,0-43.99c11.43.74,22.83,1.38,34.19,1.9v13.26Z"/>
    </g>
  </g>
</svg>