<?xml version="1.0" encoding="UTF-8"?>
<svg id="Layer_2" data-name="Layer 2" xmlns="http://www.w3.org/2000/svg" viewBox="0 0 329.73 99.81">
  <defs>
    <style>
      .cls-1 {
        fill: #231f20;
      }
    </style>
  </defs>
  <g id="Layer_1-2" data-name="Layer 1">
    <g>
      <path class="cls-1" d="m46.84,36.78c-.9-.04-1.81-.09-2.72-.14C29.52,35.83,14.8,34.55,0,32.82v28.44s17.28,0,17.28,0c6.97,0,12-.24,15.06-.71,3.07-.48,5.65-1.27,7.74-2.39,2.57-1.37,4.54-3.29,5.92-5.78,1.38-2.49,2.07-5.36,2.07-8.62,0-2.64-.41-4.97-1.24-6.98Zm-17.09,10.48c-1.65.99-4.45,1.49-8.41,1.49h-5.86s0-13.35,0-13.35h6.11c4.08,0,6.87.51,8.37,1.53,1.51,1.02,2.26,2.81,2.26,5.38,0,2.31-.82,3.97-2.47,4.96Z"/>
      <path class="cls-1" d="m44.4,32.87c-2.45-2.72-5.86-4.25-10.21-4.58,3.88-1.06,6.7-2.61,8.47-4.67,1.77-2.05,2.66-4.82,2.66-8.3,0-2.76-.6-5.2-1.78-7.3s-2.91-3.78-5.17-5.04c-1.98-1.09-4.35-1.86-7.09-2.3C28.53.22,23.7,0,16.78,0H0s0,30.54,0,30.54c14.94,1.78,30.17,3.13,45.65,3.96-.38-.58-.8-1.12-1.26-1.63Zm-17.07-9.75c-1.53.9-4.37,1.36-8.49,1.36h-3.35s0-12.35,0-12.35h3.6c4.16,0,6.95.47,8.39,1.4,1.44.94,2.16,2.56,2.16,4.88s-.77,3.8-2.3,4.71Z"/>
      <path class="cls-1" d="m95.66,47.53v13.73s-37.54,0-37.54,0v-23.99c5.45.19,10.87.32,16.28.37v9.89s21.26,0,21.26,0Z"/>
      <path class="cls-1" d="m74.4,13.43v10.63s20.04,0,20.04,0v11.3c-12.23.24-24.34.13-36.32-.3V0s37.54,0,37.54,0v13.43s-21.26,0-21.26,0Z"/>
      <path class="cls-1" d="m141.56,0h-20.92s-12.05,34.92-12.05,34.92c5.19-.22,10.39-.5,15.62-.86l4.84-15.9c.36-1.25.72-2.57,1.07-3.93.35-1.37.7-2.8,1.07-4.31.53,2.15.96,3.9,1.29,5.27.34,1.37.6,2.36.8,2.97l4.58,14.83c4.85-.44,9.72-.94,14.59-1.51L141.56,0Zm11.62,33.62c-4.87.57-9.76,1.07-14.67,1.52l1,3.23h-16.61s.62-2.05.62-2.05c-5.21.34-10.44.62-15.7.83l-8.32,24.11h16.61s3.18-10.96,3.18-10.96h23.72s3.1,10.96,3.1,10.96h16.61s-9.55-27.64-9.55-27.64Z"/>
      <path class="cls-1" d="m204.62,0v23c5.53-1.17,11.07-2.42,16.61-3.77V0s-16.61,0-16.61,0Zm0,25.31v4.48c0,4.38-.11,7.52-.34,9.44-.22,1.91-.6,3.51-1.13,4.79-.67,1.56-1.79,2.76-3.37,3.58-1.58.82-3.51,1.24-5.8,1.24s-4.22-.41-5.81-1.24c-1.59-.82-2.71-2.01-3.35-3.58-.53-1.28-.91-2.88-1.13-4.79-.22-1.91-.33-5.06-.33-9.44v-.47c-5.52.94-11.07,1.79-16.65,2.57v.49c0,6.72.41,11.68,1.23,14.87.82,3.19,2.19,5.92,4.08,8.18,2.12,2.49,5,4.35,8.64,5.59,3.64,1.24,8.08,1.86,13.33,1.86s9.66-.62,13.31-1.86c3.66-1.24,6.53-3.1,8.62-5.59,1.92-2.26,3.29-4.98,4.1-8.18.81-3.19,1.21-8.15,1.21-14.87v-10.82c-5.5,1.33-11.04,2.58-16.61,3.74ZM166.71,0v29.65c5.54-.78,11.09-1.64,16.65-2.59V0s-16.65,0-16.65,0Z"/>
      <path class="cls-1" d="m242.74,61.26h16.69s0-46.78,0-46.78h13.73s0-8.22,0-8.22c-10.01,3.52-20.15,6.74-30.42,9.66v45.34ZM229.01,0v14.48s10.32,0,10.32,0c11.27-3.16,22.55-6.72,33.82-10.71V0s-44.14,0-44.14,0Z"/>
      <path class="cls-1" d="m310.53,0l-8.16,15.77c-.06.11-.17.32-.33.63-.92,1.68-1.52,3.19-1.8,4.56-.34-1.5-.94-3.08-1.8-4.73-.11-.22-.2-.38-.25-.46L289.96.04c-5.12,2-10.28,3.91-15.47,5.75l17.71,27.52v27.95s16.11,0,16.11,0v-27.95S329.73,0,329.73,0h-19.21Zm-39.75,0l2.39,3.71.03.05c3.43-1.21,6.86-2.46,10.28-3.76h-12.7Z"/>
    </g>
    <g>
      <path class="cls-1" d="m73.81,99.67c-1.44,0-2.79-.24-4.07-.73-1.28-.49-2.27-1.12-2.97-1.89l.64-1.05c.66.68,1.57,1.26,2.72,1.73,1.15.47,2.37.7,3.66.7s2.34-.17,3.16-.51c.82-.34,1.43-.8,1.82-1.37.4-.57.59-1.21.59-1.91,0-.83-.22-1.49-.66-1.99-.44-.5-1.02-.89-1.74-1.19-.72-.29-1.5-.54-2.35-.75-.85-.2-1.7-.42-2.57-.65-.87-.23-1.66-.53-2.37-.9-.72-.37-1.29-.87-1.73-1.5-.43-.64-.65-1.46-.65-2.47,0-.92.24-1.77.72-2.54.48-.77,1.22-1.4,2.24-1.88,1.01-.48,2.31-.72,3.89-.72,1.07,0,2.12.16,3.16.47,1.04.31,1.93.74,2.66,1.27l-.52,1.13c-.81-.55-1.68-.96-2.61-1.23-.93-.27-1.83-.4-2.69-.4-1.23,0-2.26.18-3.07.52-.81.35-1.41.81-1.79,1.39-.39.58-.58,1.23-.58,1.95,0,.83.22,1.49.65,1.99.43.5,1.01.89,1.73,1.19.72.29,1.51.54,2.37.75.87.2,1.72.42,2.57.65.85.23,1.63.53,2.35.9.72.37,1.3.87,1.74,1.49.44.63.66,1.44.66,2.43,0,.9-.25,1.74-.75,2.53-.5.78-1.26,1.41-2.28,1.88s-2.33.7-3.93.7Z"/>
      <path class="cls-1" d="m83.61,99.53l8.89-19.33h1.41s8.89,19.33,8.89,19.33h-1.52s-8.39-18.45-8.39-18.45h.61s-8.37,18.45-8.37,18.45h-1.52Zm3.26-5.44l.47-1.19h11.57s.47,1.19.47,1.19h-12.51Z"/>
      <path class="cls-1" d="m107.61,99.53v-19.33s1.41,0,1.41,0v18.06s11.13,0,11.13,0v1.27s-12.54,0-12.54,0Z"/>
      <path class="cls-1" d="m132.88,99.67c-1.44,0-2.77-.24-3.99-.73-1.22-.49-2.29-1.18-3.2-2.07-.91-.89-1.62-1.93-2.11-3.12-.5-1.19-.75-2.48-.75-3.88s.25-2.69.75-3.88c.5-1.19,1.2-2.23,2.11-3.12.91-.89,1.98-1.58,3.2-2.07,1.22-.49,2.55-.73,3.99-.73s2.77.24,3.99.73c1.22.49,2.29,1.17,3.19,2.06.9.88,1.61,1.92,2.11,3.11.51,1.19.76,2.49.76,3.91s-.25,2.72-.76,3.91c-.51,1.19-1.21,2.22-2.11,3.11s-1.97,1.57-3.19,2.06c-1.22.49-2.55.73-3.99.73Zm0-1.3c1.23,0,2.37-.21,3.42-.64,1.05-.42,1.96-1.02,2.73-1.79s1.38-1.67,1.81-2.71c.43-1.03.65-2.15.65-3.37s-.22-2.36-.65-3.38c-.43-1.02-1.04-1.92-1.81-2.69s-1.68-1.37-2.73-1.79c-1.05-.42-2.19-.64-3.42-.64s-2.37.21-3.42.64c-1.05.42-1.97,1.02-2.75,1.79s-1.39,1.67-1.82,2.69c-.43,1.02-.65,2.15-.65,3.38s.22,2.34.65,3.37c.43,1.03,1.04,1.93,1.82,2.71s1.7,1.37,2.75,1.79c1.05.42,2.19.64,3.42.64Z"/>
      <path class="cls-1" d="m149.11,99.53v-19.33s1.19,0,1.19,0l13.78,17.59h-.64s0-17.59,0-17.59h1.41s0,19.33,0,19.33h-1.16s-13.81-17.59-13.81-17.59h.64s0,17.59,0,17.59h-1.41Z"/>
      <path class="cls-1" d="m185.64,99.67c-1.21,0-2.3-.2-3.24-.61-.95-.4-1.69-.97-2.24-1.7-.54-.73-.81-1.57-.81-2.53,0-.79.17-1.52.52-2.2.35-.67.92-1.34,1.73-2.02.8-.67,1.87-1.39,3.22-2.14,1.18-.68,2.11-1.27,2.79-1.77.68-.5,1.16-.98,1.44-1.44.28-.46.41-.96.41-1.49,0-.79-.26-1.43-.79-1.91-.52-.48-1.27-.72-2.25-.72-1.03,0-1.84.26-2.42.79s-.87,1.22-.87,2.08c0,.41.06.79.19,1.16.13.37.36.78.7,1.23.34.45.81,1.01,1.42,1.67l10.24,10.8-.83.91-10.55-11.1c-.64-.68-1.15-1.28-1.52-1.79-.37-.52-.62-1-.76-1.45-.14-.45-.21-.93-.21-1.42,0-.79.19-1.48.57-2.07.38-.59.91-1.05,1.6-1.38.69-.33,1.5-.5,2.42-.5.86,0,1.62.15,2.25.44.64.29,1.13.71,1.48,1.26.35.54.52,1.2.52,1.97,0,.68-.16,1.31-.48,1.89-.32.58-.86,1.16-1.62,1.74-.76.58-1.79,1.24-3.09,1.97-1.21.7-2.17,1.34-2.87,1.91-.7.57-1.19,1.13-1.48,1.67-.29.54-.43,1.14-.43,1.78,0,.76.21,1.42.64,1.99.42.57,1.01,1.01,1.75,1.33.75.31,1.62.47,2.61.47,1.33,0,2.5-.27,3.53-.81,1.03-.54,1.9-1.37,2.6-2.47.7-1.1,1.21-2.49,1.52-4.17l1.13.36c-.35,1.82-.93,3.35-1.74,4.57-.81,1.22-1.81,2.14-3.01,2.76-1.2.62-2.56.92-4.09.92Z"/>
      <path class="cls-1" d="m214.14,99.67c-1.44,0-2.79-.24-4.07-.73-1.28-.49-2.27-1.12-2.97-1.89l.64-1.05c.66.68,1.57,1.26,2.72,1.73,1.15.47,2.37.7,3.66.7s2.34-.17,3.16-.51c.82-.34,1.43-.8,1.82-1.37.4-.57.59-1.21.59-1.91,0-.83-.22-1.49-.66-1.99-.44-.5-1.02-.89-1.74-1.19-.72-.29-1.5-.54-2.35-.75-.85-.2-1.7-.42-2.57-.65-.87-.23-1.66-.53-2.37-.9-.72-.37-1.29-.87-1.73-1.5-.43-.64-.65-1.46-.65-2.47,0-.92.24-1.77.72-2.54.48-.77,1.22-1.4,2.24-1.88,1.01-.48,2.31-.72,3.89-.72,1.07,0,2.12.16,3.16.47,1.04.31,1.93.74,2.66,1.27l-.52,1.13c-.81-.55-1.68-.96-2.61-1.23-.93-.27-1.83-.4-2.69-.4-1.23,0-2.26.18-3.07.52-.81.35-1.41.81-1.79,1.39-.39.58-.58,1.23-.58,1.95,0,.83.22,1.49.65,1.99.43.5,1.01.89,1.73,1.19.72.29,1.51.54,2.37.75.86.2,1.72.42,2.57.65.85.23,1.63.53,2.35.9.72.37,1.3.87,1.74,1.49.44.63.66,1.44.66,2.43,0,.9-.25,1.74-.75,2.53-.5.78-1.26,1.41-2.28,1.88-1.02.47-2.33.7-3.93.7Z"/>
      <path class="cls-1" d="m227.18,99.53v-19.33s6.93,0,6.93,0c1.62,0,3.01.26,4.17.77,1.16.52,2.05,1.26,2.68,2.22.63.97.94,2.14.94,3.52s-.31,2.5-.94,3.48c-.63.98-1.52,1.72-2.68,2.24-1.16.52-2.55.77-4.17.77h-6.16s.64-.66.64-.66v6.99s-1.41,0-1.41,0Zm1.41-6.9l-.64-.69h6.16c2.08,0,3.66-.46,4.74-1.37,1.08-.91,1.62-2.2,1.62-3.85s-.54-2.97-1.62-3.88-2.66-1.37-4.74-1.37h-6.16s.64-.69.64-.69v11.85Z"/>
      <path class="cls-1" d="m243.74,99.53l8.89-19.33h1.41s8.89,19.33,8.89,19.33h-1.52s-8.39-18.45-8.39-18.45h.61s-8.37,18.45-8.37,18.45h-1.52Zm3.26-5.44l.47-1.19h11.57s.47,1.19.47,1.19h-12.51Z"/>
    </g>
  </g>
</svg>