<?xml version="1.0" encoding="UTF-8"?>
<svg id="Layer_2" data-name="Layer 2" xmlns="http://www.w3.org/2000/svg" viewBox="0 0 203.26 712.3">
  <defs>
    <style>
      .cls-1 {
        fill: #fff;
      }
    </style>
  </defs>
  <g id="Layer_1-2" data-name="Layer 1">
    <g>
      <path class="cls-1" d="m202.97,580.32c0,3.02-.51,5.87-1.54,8.56-1.02,2.69-2.35,4.77-3.97,6.23l-2.2-1.33c1.43-1.39,2.64-3.3,3.62-5.71.99-2.42,1.48-4.98,1.48-7.69s-.36-4.92-1.07-6.64c-.71-1.72-1.67-3-2.87-3.83-1.2-.83-2.53-1.25-4-1.25-1.74,0-3.13.46-4.18,1.39-1.04.93-1.88,2.15-2.49,3.65-.62,1.51-1.14,3.15-1.57,4.93-.43,1.78-.88,3.58-1.36,5.39-.48,1.82-1.11,3.48-1.88,4.99-.77,1.51-1.83,2.72-3.16,3.62-1.33.91-3.06,1.36-5.19,1.36-1.93,0-3.71-.5-5.34-1.51-1.62-1.01-2.94-2.57-3.94-4.7-1.01-2.13-1.51-4.85-1.51-8.18,0-2.24.33-4.46.99-6.64.66-2.18,1.55-4.05,2.67-5.6l2.38,1.1c-1.16,1.7-2.02,3.53-2.58,5.48-.56,1.95-.84,3.84-.84,5.66,0,2.59.37,4.74,1.1,6.44.74,1.7,1.71,2.96,2.93,3.77,1.22.81,2.58,1.22,4.09,1.22,1.74,0,3.13-.45,4.18-1.36,1.04-.91,1.88-2.12,2.49-3.62.62-1.51,1.14-3.17,1.57-4.99.43-1.82.88-3.61,1.36-5.39.48-1.78,1.11-3.42,1.89-4.93.77-1.51,1.82-2.73,3.13-3.65,1.31-.93,3.02-1.39,5.1-1.39,1.9,0,3.66.52,5.31,1.57,1.64,1.04,2.96,2.64,3.94,4.78s1.48,4.9,1.48,8.27Z"/>
      <path class="cls-1" d="m202.68,554.33l-40.6-18.68v-2.96l40.6-18.68v3.19l-38.74,17.63v-1.28l38.74,17.57v3.19Zm-11.43-6.84l-2.49-.99v-24.3l2.49-.99v26.27Z"/>
      <path class="cls-1" d="m202.68,498.54h-40.6v-2.96h37.93v-23.37h2.67v26.33Z"/>
      <path class="cls-1" d="m202.97,440.07c0,3.02-.51,5.81-1.54,8.38-1.02,2.57-2.47,4.81-4.35,6.73-1.88,1.91-4.06,3.39-6.55,4.44-2.49,1.04-5.21,1.57-8.15,1.57s-5.66-.52-8.15-1.57c-2.49-1.04-4.68-2.52-6.55-4.44-1.88-1.91-3.33-4.16-4.35-6.73-1.02-2.57-1.54-5.37-1.54-8.38s.51-5.81,1.54-8.38c1.02-2.57,2.46-4.8,4.32-6.7,1.86-1.89,4.03-3.37,6.53-4.44,2.49-1.06,5.23-1.6,8.21-1.6s5.71.53,8.21,1.6c2.49,1.06,4.67,2.54,6.52,4.44,1.86,1.9,3.3,4.13,4.32,6.7,1.02,2.57,1.54,5.37,1.54,8.38Zm-2.73,0c0-2.59-.44-4.99-1.33-7.19-.89-2.2-2.15-4.12-3.77-5.74s-3.52-2.89-5.68-3.8c-2.17-.91-4.52-1.36-7.08-1.36s-4.96.46-7.1,1.36c-2.15.91-4.03,2.18-5.66,3.8s-2.88,3.54-3.77,5.74c-.89,2.2-1.33,4.6-1.33,7.19s.44,4.99,1.33,7.19c.89,2.2,2.15,4.13,3.77,5.77,1.62,1.64,3.51,2.92,5.66,3.83,2.15.91,4.51,1.36,7.1,1.36s4.91-.45,7.08-1.36c2.17-.91,4.06-2.18,5.68-3.83,1.62-1.64,2.88-3.57,3.77-5.77.89-2.2,1.33-4.6,1.33-7.19Zm-41.47,3.31l-6.84-8.06v-4.18l6.84,9.11v3.13Z"/>
      <path class="cls-1" d="m202.68,400.57h-40.6v-2.49l36.95-28.94v1.33h-36.95v-2.96h40.6v2.44l-36.95,29v-1.33h36.95v2.96Z"/>
      <path class="cls-1" d="m202.97,313.05c0,2.55-.43,4.82-1.28,6.82-.85,1.99-2.04,3.56-3.57,4.7-1.53,1.14-3.3,1.71-5.31,1.71-1.66,0-3.2-.37-4.61-1.1-1.41-.73-2.82-1.94-4.23-3.62-1.41-1.68-2.91-3.93-4.5-6.76-1.43-2.47-2.67-4.43-3.71-5.86-1.04-1.43-2.05-2.44-3.02-3.02-.97-.58-2.01-.87-3.13-.87-1.66,0-3,.55-4,1.65-1,1.1-1.51,2.68-1.51,4.73,0,2.17.55,3.86,1.65,5.08s2.56,1.83,4.38,1.83c.85,0,1.66-.14,2.44-.41.77-.27,1.63-.76,2.58-1.48.95-.71,2.12-1.71,3.51-2.99l22.68-21.52,1.91,1.74-23.32,22.16c-1.43,1.35-2.69,2.42-3.77,3.19-1.08.77-2.1,1.31-3.04,1.6-.95.29-1.94.43-2.99.43-1.66,0-3.11-.4-4.35-1.19-1.24-.79-2.2-1.91-2.9-3.36-.7-1.45-1.04-3.14-1.04-5.08,0-1.82.31-3.39.93-4.73.62-1.33,1.5-2.37,2.64-3.1,1.14-.73,2.52-1.1,4.15-1.1,1.43,0,2.76.34,3.97,1.01,1.22.68,2.44,1.81,3.65,3.39,1.22,1.59,2.6,3.75,4.15,6.5,1.47,2.55,2.8,4.56,4,6.03,1.2,1.47,2.37,2.5,3.51,3.1,1.14.6,2.39.9,3.74.9,1.59,0,2.98-.44,4.18-1.33,1.2-.89,2.13-2.12,2.78-3.68.66-1.57.99-3.39.99-5.48,0-2.78-.57-5.26-1.71-7.42-1.14-2.17-2.87-3.98-5.19-5.45-2.32-1.47-5.24-2.53-8.76-3.19l.75-2.38c3.83.73,7.03,1.95,9.6,3.65,2.57,1.7,4.5,3.81,5.8,6.32,1.3,2.51,1.94,5.38,1.94,8.58Z"/>
      <path class="cls-1" d="m202.97,242.41c0,3.02-.51,5.87-1.54,8.56-1.02,2.69-2.35,4.77-3.97,6.23l-2.2-1.33c1.43-1.39,2.64-3.3,3.62-5.71.99-2.42,1.48-4.98,1.48-7.68s-.36-4.92-1.07-6.64c-.71-1.72-1.67-3-2.87-3.83-1.2-.83-2.53-1.25-4-1.25-1.74,0-3.13.46-4.18,1.39-1.04.93-1.88,2.15-2.49,3.65-.62,1.51-1.14,3.15-1.57,4.93-.43,1.78-.88,3.58-1.36,5.39-.48,1.82-1.11,3.48-1.88,4.99-.77,1.51-1.83,2.72-3.16,3.62-1.33.91-3.06,1.36-5.19,1.36-1.93,0-3.71-.5-5.34-1.51s-2.94-2.57-3.94-4.7c-1.01-2.13-1.51-4.85-1.51-8.18,0-2.24.33-4.46.99-6.64.66-2.18,1.55-4.05,2.67-5.6l2.38,1.1c-1.16,1.7-2.02,3.53-2.58,5.48-.56,1.95-.84,3.84-.84,5.66,0,2.59.37,4.74,1.1,6.44.74,1.7,1.71,2.96,2.93,3.77,1.22.81,2.58,1.22,4.09,1.22,1.74,0,3.13-.45,4.18-1.36,1.04-.91,1.88-2.12,2.49-3.62.62-1.51,1.14-3.17,1.57-4.99.43-1.82.88-3.61,1.36-5.39.48-1.78,1.11-3.42,1.89-4.93.77-1.51,1.82-2.73,3.13-3.65,1.31-.93,3.02-1.39,5.1-1.39,1.9,0,3.66.52,5.31,1.57,1.64,1.04,2.96,2.64,3.94,4.79.99,2.15,1.48,4.9,1.48,8.26Z"/>
      <path class="cls-1" d="m202.68,209.64h-40.6v-14.56c0-3.4.54-6.32,1.62-8.76,1.08-2.44,2.64-4.31,4.67-5.63,2.03-1.31,4.5-1.97,7.4-1.97s5.26.66,7.31,1.97c2.05,1.31,3.62,3.19,4.7,5.63,1.08,2.44,1.62,5.36,1.62,8.76v12.93l-1.39-1.33h14.67v2.96Zm-14.5-2.96l-1.45,1.33v-12.93c0-4.37-.96-7.69-2.87-9.95-1.91-2.26-4.61-3.39-8.09-3.39s-6.23,1.13-8.15,3.39-2.87,5.58-2.87,9.95v12.93l-1.45-1.33h24.88Z"/>
      <path class="cls-1" d="m202.68,169.45l-40.6-18.68v-2.96l40.6-18.68v3.19l-38.74,17.63v-1.28l38.74,17.57v3.19Zm-11.43-6.84l-2.49-.99v-24.3l2.49-.99v26.27Z"/>
    </g>
    <g>
      <path class="cls-1" d="m59.41,640.49c-2.22-8.14-5.49-14.07-9.8-17.8-4.3-3.72-10.12-5.58-17.44-5.58-5.8,0-10.92,1.25-15.34,3.74s-7.95,6.11-10.59,10.85c-2.29,4.16-3.9,9.13-4.83,14.9-.94,5.77-1.41,15.92-1.41,30.45v35.25h65.11c4.2-32.73,7.52-65.2,9.94-97.38-2.2,1.12-4.2,2.49-6.01,4.13-5.72,5.15-8.92,12.3-9.63,21.44Zm-10.85,14.42c1.9,3.22,2.86,9.17,2.86,17.84v7.03h-25.93v-7.56c0-8.73.98-14.6,2.94-17.62,1.97-3.02,5.38-4.53,10.24-4.53s7.99,1.61,9.89,4.84Z"/>
      <path class="cls-1" d="m62.58,318.24c3.23,0,6.13-.03,8.72-.09,1.24,11.61,2.35,23.28,3.32,35-2.1.05-4.3.07-6.59.07H0v-34.98h62.58Z"/>
      <path class="cls-1" d="m0,222.35v-92.73h30.41v28.83h14.9c2.59,11.62,5.03,23.31,7.31,35.07h-22.21v28.83H0Z"/>
      <path class="cls-1" d="m0,594.9v-78.84h28.21v44.65h22.33v-42.1h27.59v42.1h.17c-.5,11.36-1.12,22.76-1.86,34.19H0Z"/>
      <path class="cls-1" d="m0,273.59v-34.89h60.69c1.87,11.57,3.61,23.2,5.2,34.9-1.06-.01-2.17-.01-3.31-.01H0Z"/>
      <path class="cls-1" d="m0,78.18l21.59-11.29c3.14,10.55,6.15,21.16,9.03,31.84L0,118.43v-40.25Z"/>
      <path class="cls-1" d="m0,.8c4.88,13.67,9.54,27.46,13.96,41.36L0,34.94V.8Z"/>
      <path class="cls-1" d="m0,410.82l76.87-26.57c.67,10.46,1.22,20.97,1.66,31.52l-40.39,12.46c-1.28.41-3.37.96-6.24,1.67-2.87.7-6.56,1.61-11.07,2.72,3.16.76,6.18,1.51,9.05,2.24,2.87.74,5.63,1.48,8.26,2.24l41.48,12.62c.24,10.84.36,21.72.37,32.64L0,454.77v-43.95Z"/>
      <path class="cls-1" d="m74.53,273.76c-1.6-11.75-3.34-23.44-5.22-35.06,13.47.05,23.45.9,29.96,2.54,6.71,1.7,12.44,4.57,17.18,8.62,5.22,4.39,9.13,10.43,11.74,18.1,2.6,7.68,3.91,17,3.91,27.95s-1.31,20.35-3.91,28c-2.61,7.64-6.52,13.69-11.74,18.15-4.74,3.98-10.47,6.84-17.18,8.56-4.04,1.04-9.41,1.77-16.13,2.18-.97-11.73-2.06-23.41-3.29-35.03.94-.07,1.79-.15,2.55-.24,4.01-.47,7.37-1.26,10.06-2.37,3.28-1.35,5.79-3.69,7.51-7.03,1.73-3.34,2.6-7.41,2.6-12.22s-.87-8.86-2.6-12.17c-1.72-3.31-4.23-5.67-7.51-7.08-2.69-1.11-6.05-1.9-10.06-2.37-1.99-.24-4.62-.41-7.87-.53Z"/>
      <path class="cls-1" d="m8.4,0l61.56,39.6h58.71v33.83h-58.71l-31.96,20.56c-2.86-10.39-5.83-20.73-8.92-31.01l4.05-2.12c.18-.11.5-.29.97-.52,3.46-1.82,6.77-3.08,9.93-3.78-2.87-.59-6.06-1.85-9.58-3.78-.64-.35-1.08-.59-1.32-.7l-8.79-4.55C19.32,31.54,14.01,15.7,8.4,0Z"/>
      <path class="cls-1" d="m83.48,612.07c2.62-.51,5.44-.76,8.45-.76,6.86,0,12.89,1.45,18.11,4.35,5.21,2.9,9.26,7.05,12.13,12.44,2.34,4.39,4.01,9.81,5.01,16.26.99,6.44,1.49,16.99,1.49,31.64v36.3h-55.42c1.4-10.87,2.71-21.71,3.91-32.52h25.23v-12.31c0-8.32-1.04-14.2-3.12-17.66-2.08-3.46-5.55-5.19-10.41-5.19-3.41,0-6.18.63-8.29,1.91,1.09-11.52,2.05-23.01,2.91-34.46Z"/>
      <path class="cls-1" d="m61.27,193.52c-2.29-11.76-4.73-23.44-7.31-35.07h74.71v35.07H61.27Z"/>
      <path class="cls-1" d="m85.21,381.37l43.46-15.02v34.89l-23.03,6.51v49.83l23.03,6.68v34.89l-40.29-13.9v-2.64c0-23.55-.5-46.92-1.5-70.08-.45-10.43-1.01-20.81-1.67-31.16Z"/>
      <path class="cls-1" d="m99.84,560.71v-44.65h28.83v78.84h-43.99c.74-11.43,1.38-22.83,1.9-34.19h13.26Z"/>
    </g>
  </g>
</svg>